<svg width="81" height="81" viewBox="0 0 81 81" fill="none" xmlns="http://www.w3.org/2000/svg">
<path d="M67.5 13.5C69.2902 13.5 71.0071 14.2112 72.273 15.477C73.5388 16.7429 74.25 18.4598 74.25 20.25V54C74.25 57.7463 71.2463 60.75 67.5 60.75H81V67.5H0V60.75H13.5C11.7098 60.75 9.9929 60.0388 8.72703 58.773C7.46116 57.5071 6.75 55.7902 6.75 54V20.25C6.75 16.5037 9.75375 13.5 13.5 13.5H67.5ZM67.5 20.25H13.5V54H67.5V20.25ZM40.5 40.5C47.9588 40.5 54 43.5375 54 47.25V50.625H27V47.25C27 43.5375 33.0412 40.5 40.5 40.5ZM40.5 23.625C42.2902 23.625 44.0071 24.3362 45.273 25.602C46.5388 26.8679 47.25 28.5848 47.25 30.375C47.25 32.1652 46.5388 33.8821 45.273 35.148C44.0071 36.4138 42.2902 37.125 40.5 37.125C36.7537 37.125 33.75 34.1213 33.75 30.375C33.75 26.6287 36.7875 23.625 40.5 23.625Z" fill="#333333"/>
</svg>
