<svg width="50" height="50" viewBox="0 0 50 50" fill="none" xmlns="http://www.w3.org/2000/svg">
<path d="M23.4375 16.3479C21.4875 16.8812 20.3125 18.3792 20.3125 19.7917C20.3125 21.2042 21.4875 22.7021 23.4375 23.2333V16.3479ZM26.5625 26.7667V33.65C28.5125 33.1187 29.6875 31.6208 29.6875 30.2083C29.6875 28.7958 28.5125 27.2979 26.5625 26.7667Z" fill="#545454"/>
<path fill-rule="evenodd" clip-rule="evenodd" d="M45.8334 25C45.8334 36.5063 36.5063 45.8333 25.0001 45.8333C13.4938 45.8333 4.16675 36.5063 4.16675 25C4.16675 13.4938 13.4938 4.16667 25.0001 4.16667C36.5063 4.16667 45.8334 13.4938 45.8334 25ZM25.0001 10.9375C25.4145 10.9375 25.8119 11.1021 26.1049 11.3952C26.398 11.6882 26.5626 12.0856 26.5626 12.5V13.1604C29.9584 13.7688 32.8126 16.3208 32.8126 19.7917C32.8126 20.2061 32.648 20.6035 32.3549 20.8965C32.0619 21.1896 31.6645 21.3542 31.2501 21.3542C30.8357 21.3542 30.4383 21.1896 30.1452 20.8965C29.8522 20.6035 29.6876 20.2061 29.6876 19.7917C29.6876 18.3792 28.5126 16.8813 26.5626 16.3479V23.5771C29.9584 24.1854 32.8126 26.7375 32.8126 30.2083C32.8126 33.6792 29.9584 36.2313 26.5626 36.8396V37.5C26.5626 37.9144 26.398 38.3118 26.1049 38.6049C25.8119 38.8979 25.4145 39.0625 25.0001 39.0625C24.5857 39.0625 24.1883 38.8979 23.8952 38.6049C23.6022 38.3118 23.4376 37.9144 23.4376 37.5V36.8396C20.0417 36.2313 17.1876 33.6792 17.1876 30.2083C17.1876 29.7939 17.3522 29.3965 17.6452 29.1035C17.9383 28.8105 18.3357 28.6458 18.7501 28.6458C19.1645 28.6458 19.5619 28.8105 19.8549 29.1035C20.148 29.3965 20.3126 29.7939 20.3126 30.2083C20.3126 31.6208 21.4876 33.1188 23.4376 33.65V26.4229C20.0417 25.8146 17.1876 23.2625 17.1876 19.7917C17.1876 16.3208 20.0417 13.7688 23.4376 13.1604V12.5C23.4376 12.0856 23.6022 11.6882 23.8952 11.3952C24.1883 11.1021 24.5857 10.9375 25.0001 10.9375Z" fill="#545454"/>
</svg>
