<svg width="50" height="50" viewBox="0 0 50 50" fill="none" xmlns="http://www.w3.org/2000/svg">
<path d="M11.1719 14.2969C12.0313 14.4531 12.4219 15.3125 12.0313 16.0937L9.53129 22.0312C9.21879 22.8906 8.35942 23.125 7.65629 22.7344L2.34379 19.4531C1.64067 18.9844 1.32817 17.9687 1.64067 17.1094L2.89067 14.1406C3.20317 13.3594 4.21879 12.8125 5.00004 12.9687L11.1719 14.2969ZM7.65629 27.1875C8.35942 26.7187 9.21879 27.0313 9.60942 27.8906L12.1094 33.8281C12.4219 34.6875 12.0313 35.4687 11.25 35.625L5.15629 36.9531C4.29692 37.1094 3.35942 36.6406 3.04692 35.7812L1.79692 32.8125C1.48442 31.9531 1.79692 30.9375 2.50004 30.4688L7.65629 27.1875ZM14.2969 38.8281C14.4532 37.9688 15.3125 37.5781 16.0938 37.9687L22.0313 40.4687C22.8907 40.7812 23.125 41.6406 22.7344 42.4219L19.375 47.6562C18.9063 48.3594 17.8907 48.6719 17.0313 48.3594L14.0625 47.1094C13.2813 46.7969 12.7344 45.7812 12.8907 45L14.2969 38.8281ZM27.1875 42.3438C26.7188 41.6406 27.0313 40.7813 27.8907 40.3906L33.8282 37.8906C34.6875 37.5781 35.4688 37.9687 35.625 38.75L36.9532 44.8438C37.1094 45.7031 36.6407 46.6406 35.7813 46.9531L32.8125 48.2031C31.9532 48.5156 30.9375 48.2031 30.4688 47.5L27.1875 42.3438ZM38.8282 35.7031C37.9688 35.5469 37.5782 34.6875 37.9688 33.9063L40.4688 27.9687C40.7813 27.1875 41.6407 26.875 42.4219 27.2656L47.7344 30.625C48.4375 31.0938 48.75 32.1094 48.4375 32.9688L47.1875 35.9375C46.875 36.7188 45.8594 37.2656 45.0782 37.1094L38.8282 35.7031ZM42.3438 22.8125C41.6407 23.2812 40.7813 22.9687 40.3907 22.1094L37.8907 16.1719C37.5782 15.3125 37.9688 14.5312 38.75 14.375L44.8438 13.0469C45.7032 12.8906 46.6407 13.3594 46.9532 14.2187L48.2032 17.1875C48.5157 17.9687 48.2032 19.0625 47.5 19.5312L42.3438 22.8125ZM35.7032 11.1719C35.5469 12.0312 34.6875 12.4219 33.9063 12.0312L27.9688 9.53125C27.1094 9.21875 26.875 8.35937 27.2657 7.57812L30.5469 2.34375C31.0157 1.64062 32.0313 1.32812 32.8907 1.64062L35.8594 2.89062C36.6407 3.20312 37.1875 4.21875 37.0313 5L35.7032 11.1719ZM22.8125 7.65625C23.2813 8.35937 22.9688 9.21875 22.1094 9.60937L16.1719 12.1094C15.3907 12.4219 14.5313 12.0312 14.375 11.25L13.0469 5.15625C12.8907 4.29687 13.3594 3.35937 14.2188 3.04687L17.1875 1.79687C18.0469 1.48437 19.0625 1.79687 19.5313 2.5L22.8125 7.65625Z" fill="#3E4347"/>
<path d="M25 5.23438C14.0625 5.23438 5.23438 14.0625 5.23438 25C5.23438 35.9375 14.0625 44.7656 25 44.7656C35.9375 44.7656 44.7656 35.9375 44.7656 25C44.7656 14.0625 35.9375 5.23438 25 5.23438ZM25 37.4219C18.125 37.4219 12.5781 31.875 12.5781 25C12.5781 18.125 18.125 12.5781 25 12.5781C31.875 12.5781 37.4219 18.125 37.4219 25C37.4219 31.875 31.875 37.4219 25 37.4219Z" fill="#3E4347"/>
<path d="M25 9.60938C16.4844 9.60938 9.60938 16.4844 9.60938 25C9.60938 33.5156 16.4844 40.3906 25 40.3906C33.5156 40.3906 40.3906 33.5156 40.3906 25C40.3906 16.4844 33.5156 9.60938 25 9.60938ZM25 30.8594C21.7969 30.8594 19.1406 28.2031 19.1406 25C19.1406 21.7969 21.7969 19.1406 25 19.1406C28.2031 19.1406 30.8594 21.7969 30.8594 25C30.8594 28.2031 28.2031 30.8594 25 30.8594Z" fill="#94989B"/>
<path d="M25 13.2812C18.5156 13.2812 13.2812 18.5156 13.2812 25C13.2812 31.4844 18.5156 36.7188 25 36.7188C31.4844 36.7188 36.7188 31.4844 36.7188 25C36.7188 18.5156 31.4844 13.2812 25 13.2812ZM25 30.8594C21.7969 30.8594 19.1406 28.2031 19.1406 25C19.1406 21.7969 21.7969 19.1406 25 19.1406C28.2031 19.1406 30.8594 21.7969 30.8594 25C30.8594 28.2031 28.2031 30.8594 25 30.8594Z" fill="#3E4347"/>
</svg>
