<svg width="81" height="81" viewBox="0 0 81 81" fill="none" xmlns="http://www.w3.org/2000/svg">
<path d="M17.6296 17.5527C17.9965 17.1967 18.4897 17.0009 19.0009 17.0085C19.512 17.0161 19.9992 17.2264 20.3553 17.5932C20.7427 18.0002 20.955 18.543 20.9467 19.1048C20.9384 19.6667 20.71 20.2029 20.3107 20.5983C15.0743 25.8977 12.1415 33.0499 12.15 40.5C12.15 48.5595 15.5115 55.8333 20.9142 60.993C21.1218 61.1863 21.2891 61.4189 21.4063 61.6773C21.5235 61.9357 21.5883 62.2148 21.5969 62.4984C21.6056 62.782 21.558 63.0645 21.4568 63.3295C21.3556 63.5946 21.2028 63.837 21.0073 64.0426C20.6589 64.4025 20.1839 64.6123 19.6832 64.6275C19.1826 64.6426 18.6957 64.4618 18.3262 64.1236C15.0942 61.0966 12.5188 57.4377 10.7596 53.3739C9.00048 49.3101 8.09521 44.9282 8.09999 40.5C8.09999 31.5333 11.745 23.4171 17.6296 17.5527ZM60.6892 20.5983C60.2905 20.2024 60.0629 19.6659 60.0553 19.104C60.0478 18.5421 60.2608 17.9997 60.6487 17.5932C61.0047 17.2277 61.491 17.0182 62.0012 17.0106C62.5113 17.003 63.0037 17.1979 63.3703 17.5527C66.3942 20.5598 68.793 24.1355 70.4286 28.0739C72.0641 32.0123 72.9041 36.2355 72.9 40.5C72.9 49.815 68.9715 58.2147 62.6737 64.1236C62.3043 64.4618 61.8174 64.6426 61.3168 64.6275C60.8161 64.6123 60.341 64.4025 59.9926 64.0426C59.7978 63.8371 59.6456 63.5949 59.5447 63.3303C59.4439 63.0656 59.3964 62.7836 59.4051 62.5004C59.4138 62.2173 59.4784 61.9387 59.5952 61.6807C59.712 61.4227 59.8788 61.1903 60.0858 60.997C62.8597 58.3529 65.067 55.1725 66.5736 51.6489C68.0802 48.1253 68.8547 44.3322 68.85 40.5C68.8596 33.0485 65.9267 25.8987 60.6892 20.5983ZM24.8346 24.6645C25.1955 24.3208 25.6782 24.1345 26.1764 24.1466C26.6747 24.1588 27.1477 24.3684 27.4914 24.7293C28.3338 25.5717 28.2487 26.9568 27.4185 27.8073C24.1191 31.2086 22.2742 35.7613 22.275 40.5C22.275 45.7245 24.4741 50.4387 28.0017 53.7637C28.8927 54.6021 29.0142 56.0358 28.1434 56.9065C27.8097 57.2536 27.3552 57.4589 26.8742 57.48C26.3932 57.5011 25.9224 57.3364 25.5595 57.0199C23.2504 54.9318 21.4047 52.3828 20.1413 49.5373C18.878 46.6919 18.2252 43.6133 18.225 40.5C18.2205 37.5539 18.8027 34.6364 19.9375 31.9176C21.0723 29.1988 22.737 26.7332 24.8346 24.6645ZM53.5815 27.8073C52.7512 26.9568 52.6662 25.5717 53.5086 24.7293C53.8523 24.3684 54.3253 24.1588 54.8236 24.1466C55.3218 24.1345 55.8045 24.3208 56.1654 24.6645C58.263 26.7332 59.9277 29.1988 61.0625 31.9176C62.1973 34.6364 62.7795 37.5539 62.775 40.5C62.7759 43.6136 62.1239 46.6929 60.8613 49.539C59.5987 52.3852 57.7534 54.935 55.4445 57.024C55.0801 57.3418 54.6071 57.5066 54.1241 57.484C53.6411 57.4613 53.1855 57.253 52.8525 56.9025C51.9858 56.0358 52.1073 54.6021 52.9983 53.7637C54.8065 52.06 56.2473 50.0045 57.2321 47.7235C58.2169 45.4426 58.7249 42.9844 58.725 40.5C58.7258 35.7613 56.8809 31.2086 53.5815 27.8073ZM40.5 35.4375C39.1573 35.4375 37.8697 35.9709 36.9203 36.9203C35.9709 37.8697 35.4375 39.1573 35.4375 40.5C35.4375 41.8426 35.9709 43.1303 36.9203 44.0797C37.8697 45.0291 39.1573 45.5625 40.5 45.5625C41.8427 45.5625 43.1303 45.0291 44.0797 44.0797C45.0291 43.1303 45.5625 41.8426 45.5625 40.5C45.5625 39.1573 45.0291 37.8697 44.0797 36.9203C43.1303 35.9709 41.8427 35.4375 40.5 35.4375Z" fill="#333333"/>
</svg>
