<svg width="81" height="81" viewBox="0 0 81 81" fill="none" xmlns="http://www.w3.org/2000/svg">
<g filter="url(#filter0_d_200_58)">
<path opacity="0.3" d="M37.125 33.75C40.8529 33.75 43.875 30.7279 43.875 27C43.875 23.2721 40.8529 20.25 37.125 20.25C33.3971 20.25 30.375 23.2721 30.375 27C30.375 30.7279 33.3971 33.75 37.125 33.75Z" fill="#333333"/>
<path opacity="0.3" d="M16.875 60.75H33.7162L30.375 57.375L33.5138 54.2025C25.4813 55.1137 17.55 58.6238 16.875 60.75Z" fill="#333333"/>
<path d="M37.125 40.5C44.5838 40.5 50.625 34.4588 50.625 27C50.625 19.5412 44.5838 13.5 37.125 13.5C29.6662 13.5 23.625 19.5412 23.625 27C23.625 34.4588 29.6662 40.5 37.125 40.5ZM37.125 20.25C40.8375 20.25 43.875 23.2875 43.875 27C43.875 30.7125 40.8375 33.75 37.125 33.75C33.4125 33.75 30.375 30.7125 30.375 27C30.375 23.2875 33.4125 20.25 37.125 20.25ZM33.75 60.75H16.875C17.55 58.6238 25.4813 55.1137 33.5138 54.2025H33.615L35.1675 52.6837L40.5 47.4525C39.3794 47.3247 38.2528 47.2571 37.125 47.25C28.1137 47.25 10.125 51.7725 10.125 60.75V67.5H40.5L33.75 60.75ZM69.525 42.1875L52.2113 59.6363L45.225 52.6163L40.5 57.375L52.2113 69.1875L74.25 46.9462L69.525 42.1875Z" fill="#333333"/>
</g>
<defs>
<filter id="filter0_d_200_58" x="-4" y="0" width="89" height="89" filterUnits="userSpaceOnUse" color-interpolation-filters="sRGB">
<feFlood flood-opacity="0" result="BackgroundImageFix"/>
<feColorMatrix in="SourceAlpha" type="matrix" values="0 0 0 0 0 0 0 0 0 0 0 0 0 0 0 0 0 0 127 0" result="hardAlpha"/>
<feOffset dy="4"/>
<feGaussianBlur stdDeviation="2"/>
<feComposite in2="hardAlpha" operator="out"/>
<feColorMatrix type="matrix" values="0 0 0 0 0 0 0 0 0 0 0 0 0 0 0 0 0 0 0.25 0"/>
<feBlend mode="normal" in2="BackgroundImageFix" result="effect1_dropShadow_200_58"/>
<feBlend mode="normal" in="SourceGraphic" in2="effect1_dropShadow_200_58" result="shape"/>
</filter>
</defs>
</svg>
