<svg width="50" height="50" viewBox="0 0 50 50" fill="none" xmlns="http://www.w3.org/2000/svg">
<path d="M6.25 24.9812C6.25 36.7271 15.0812 42.4292 20.6229 44.8479C22.125 45.5042 22.8771 45.8333 25 45.8333V16.6667L6.25 22.9167V24.9812Z" fill="#545454"/>
<path opacity="0.5" d="M29.3771 44.8479C34.9187 42.4271 43.75 36.7292 43.75 24.9812V22.9167L25 16.6667V45.8333C27.125 45.8333 27.875 45.5042 29.3771 44.8479ZM18.4125 5.84375L17.2188 6.25C10.9542 8.39583 7.82292 9.46875 7.0375 10.5875C6.25 11.7083 6.25 15.0417 6.25 21.7021V22.9167L25 16.6667V4.16666C23.3104 4.16666 21.6771 4.725 18.4125 5.84375Z" fill="#545454"/>
<path d="M32.7812 6.25L31.5875 5.84375C28.3229 4.725 26.6917 4.16666 25 4.16666V16.6667L43.75 22.9167V21.7021C43.75 15.0396 43.75 11.7083 42.9625 10.5875C42.1771 9.46875 39.0458 8.39375 32.7812 6.25Z" fill="#545454"/>
</svg>
