<svg width="140" height="140" viewBox="0 0 140 140" fill="none" xmlns="http://www.w3.org/2000/svg">
<path d="M98.595 14H28C24.287 14 20.726 15.475 18.1005 18.1005C15.475 20.726 14 24.287 14 28V91C14 94.713 15.475 98.274 18.1005 100.899C20.726 103.525 24.287 105 28 105H49V119H38.5C37.5717 119 36.6815 119.369 36.0251 120.025C35.3687 120.682 35 121.572 35 122.5C35 123.428 35.3687 124.318 36.0251 124.975C36.6815 125.631 37.5717 126 38.5 126H101.5C102.428 126 103.318 125.631 103.975 124.975C104.631 124.318 105 123.428 105 122.5C105 121.572 104.631 120.682 103.975 120.025C103.318 119.369 102.428 119 101.5 119H91V105H112C115.713 105 119.274 103.525 121.899 100.899C124.525 98.274 126 94.713 126 91V49H119V91C119 92.8565 118.263 94.637 116.95 95.9497C115.637 97.2625 113.857 98 112 98H28C26.1435 98 24.363 97.2625 23.0503 95.9497C21.7375 94.637 21 92.8565 21 91V28C21 26.1435 21.7375 24.363 23.0503 23.0503C24.363 21.7375 26.1435 21 28 21H98V17.5C98.0047 16.268 98.203 15.1013 98.595 14ZM84 119H56V105H84V119ZM105 17.5C105 16.5717 105.369 15.6815 106.025 15.0251C106.682 14.3687 107.572 14 108.5 14H129.5C130.428 14 131.318 14.3687 131.975 15.0251C132.631 15.6815 133 16.5717 133 17.5V38.5C133 39.4283 132.631 40.3185 131.975 40.9749C131.318 41.6313 130.428 42 129.5 42H108.5C107.572 42 106.682 41.6313 106.025 40.9749C105.369 40.3185 105 39.4283 105 38.5V35H99.54C98.8057 35.0006 98.0902 35.232 97.4948 35.6617C96.8993 36.0913 96.454 36.6973 96.222 37.394L92.414 48.818C91.7179 50.908 90.3821 52.7261 88.5957 54.015C86.8093 55.3039 84.6628 55.9983 82.46 56H77V66.5C77 67.4283 76.6313 68.3185 75.9749 68.9749C75.3185 69.6313 74.4283 70 73.5 70H52.5C51.5717 70 50.6815 69.6313 50.0251 68.9749C49.3688 68.3185 49 67.4283 49 66.5V45.5C49 44.5717 49.3688 43.6815 50.0251 43.0251C50.6815 42.3687 51.5717 42 52.5 42H73.5C74.4283 42 75.3185 42.3687 75.9749 43.0251C76.6313 43.6815 77 44.5717 77 45.5V49H82.46C83.1943 48.9994 83.9098 48.768 84.5052 48.3383C85.1007 47.9087 85.546 47.3027 85.778 46.606L89.586 35.182C90.2821 33.092 91.6179 31.2739 93.4043 29.985C95.1907 28.6961 97.3372 28.0017 99.54 28H105V17.5ZM70 49H56V63H70V49ZM112 35H126V21H112V35Z" fill="#699BF7"/>
</svg>
