<svg width="140" height="140" viewBox="0 0 140 140" fill="none" xmlns="http://www.w3.org/2000/svg">
<path opacity="0.2" d="M113.75 56.875V118.125H26.25V56.875H113.75Z" fill="#699BF7"/>
<path d="M118.125 61.25V113.75C118.125 116.071 117.203 118.296 115.562 119.937C113.921 121.578 111.696 122.5 109.375 122.5H30.625C28.3044 122.5 26.0788 121.578 24.4378 119.937C22.7969 118.296 21.875 116.071 21.875 113.75V61.25C21.875 58.9294 22.7969 56.7038 24.4378 55.0628C26.0788 53.4219 28.3044 52.5 30.625 52.5H43.75C44.9103 52.5 46.0231 52.961 46.8436 53.7814C47.6641 54.6019 48.125 55.7147 48.125 56.875C48.125 58.0353 47.6641 59.1481 46.8436 59.9686C46.0231 60.7891 44.9103 61.25 43.75 61.25H30.625V113.75H109.375V61.25H96.25C95.0897 61.25 93.9769 60.7891 93.1564 59.9686C92.3359 59.1481 91.875 58.0353 91.875 56.875C91.875 55.7147 92.3359 54.6019 93.1564 53.7814C93.9769 52.961 95.0897 52.5 96.25 52.5H109.375C111.696 52.5 113.921 53.4219 115.562 55.0628C117.203 56.7038 118.125 58.9294 118.125 61.25ZM51.2203 38.0953L65.625 23.6852V74.375C65.625 75.5353 66.0859 76.6481 66.9064 77.4686C67.7269 78.2891 68.8397 78.75 70 78.75C71.1603 78.75 72.2731 78.2891 73.0936 77.4686C73.9141 76.6481 74.375 75.5353 74.375 74.375V23.6852L88.7797 38.0953C89.6006 38.9163 90.714 39.3775 91.875 39.3775C93.036 39.3775 94.1494 38.9163 94.9703 38.0953C95.7912 37.2744 96.2524 36.161 96.2524 35C96.2524 33.8391 95.7912 32.7256 94.9703 31.9047L73.0953 10.0297C72.689 9.62294 72.2065 9.30024 71.6754 9.08007C71.1442 8.85991 70.5749 8.74658 70 8.74658C69.4251 8.74658 68.8558 8.85991 68.3246 9.08007C67.7935 9.30024 67.311 9.62294 66.9047 10.0297L45.0297 31.9047C44.2088 32.7256 43.7476 33.8391 43.7476 35C43.7476 36.161 44.2088 37.2744 45.0297 38.0953C45.8506 38.9163 46.964 39.3775 48.125 39.3775C49.286 39.3775 50.3994 38.9163 51.2203 38.0953Z" fill="#699BF7"/>
</svg>
