<svg width="140" height="140" viewBox="0 0 140 140" fill="none" xmlns="http://www.w3.org/2000/svg">
<path d="M17.5 110.833V29.1667H55.9767L67.6433 40.8334H122.5V110.833H17.5ZM70 93.7826C75.5222 93.7826 80.1928 91.8712 84.0117 88.0484C87.8306 84.2256 89.742 79.5551 89.7458 74.0368C89.7497 68.5184 87.8383 63.8479 84.0117 60.0251C80.185 56.2023 75.5144 54.2929 70 54.2967C64.4856 54.3006 59.815 56.2101 55.9883 60.0251C52.1617 63.8401 50.2503 68.5106 50.2542 74.0368C50.2581 79.5629 52.1694 84.2334 55.9883 88.0484C59.8111 91.8712 64.4817 93.7826 70 93.7826ZM61.7167 62.1076C62.9378 61.2443 64.2328 60.587 65.6017 60.1359C66.9706 59.6848 68.4367 59.4573 70 59.4534C74.0833 59.4534 77.5347 60.8631 80.3542 63.6826C83.1736 66.502 84.5833 69.9534 84.5833 74.0368C84.5833 75.6001 84.3578 77.0662 83.9067 78.4351C83.4556 79.804 82.7983 81.099 81.935 82.3201L61.7167 62.1076ZM70 88.6143C65.9167 88.6143 62.4653 87.2045 59.6458 84.3851C56.8264 81.5656 55.4167 78.1162 55.4167 74.0368C55.4167 72.4734 55.6422 71.0073 56.0933 69.6384C56.5483 68.2734 57.2056 66.9804 58.065 65.7592L78.2775 85.9717C77.0603 86.8351 75.7672 87.4923 74.3983 87.9434C73.0294 88.3945 71.5633 88.6201 70 88.6201" fill="#699BF7"/>
</svg>
