<svg width="140" height="140" viewBox="0 0 140 140" fill="none" xmlns="http://www.w3.org/2000/svg">
<path d="M105 128.333C100.139 128.333 96.0069 126.632 92.6042 123.229C89.2014 119.826 87.5 115.695 87.5 110.833C87.5 110.153 87.5486 109.447 87.6458 108.716C87.7431 107.985 87.8889 107.33 88.0833 106.75L46.9583 82.8334C45.3056 84.2917 43.4583 85.4351 41.4167 86.2634C39.375 87.0918 37.2361 87.504 35 87.5001C30.1389 87.5001 26.0069 85.7987 22.6042 82.3959C19.2014 78.9931 17.5 74.8612 17.5 70.0001C17.5 65.139 19.2014 61.007 22.6042 57.6042C26.0069 54.2015 30.1389 52.5001 35 52.5001C37.2361 52.5001 39.375 52.9142 41.4167 53.7426C43.4583 54.5709 45.3056 55.7123 46.9583 57.1668L88.0833 33.2501C87.8889 32.6667 87.7431 32.0115 87.6458 31.2842C87.5486 30.557 87.5 29.8512 87.5 29.1667C87.5 24.3056 89.2014 20.1737 92.6042 16.7709C96.0069 13.3681 100.139 11.6667 105 11.6667C109.861 11.6667 113.993 13.3681 117.396 16.7709C120.799 20.1737 122.5 24.3056 122.5 29.1667C122.5 34.0279 120.799 38.1598 117.396 41.5626C113.993 44.9654 109.861 46.6667 105 46.6667C102.764 46.6667 100.625 46.2545 98.5833 45.4301C96.5417 44.6056 94.6944 43.4623 93.0417 42.0001L51.9167 65.9168C52.1111 66.5001 52.2569 67.1573 52.3542 67.8884C52.4514 68.6195 52.5 69.3234 52.5 70.0001C52.5 70.6768 52.4514 71.3826 52.3542 72.1176C52.2569 72.8526 52.1111 73.5079 51.9167 74.0834L93.0417 98.0001C94.6944 96.5417 96.5417 95.4004 98.5833 94.5759C100.625 93.7515 102.764 93.3373 105 93.3334C109.861 93.3334 113.993 95.0348 117.396 98.4376C120.799 101.84 122.5 105.972 122.5 110.833C122.5 115.695 120.799 119.826 117.396 123.229C113.993 126.632 109.861 128.333 105 128.333ZM105 35.0001C106.653 35.0001 108.039 34.442 109.159 33.3259C110.279 32.2098 110.837 30.8234 110.833 29.1667C110.829 27.5101 110.269 26.1256 109.153 25.0134C108.037 23.9012 106.653 23.3412 105 23.3334C103.347 23.3256 101.963 23.8856 100.847 25.0134C99.7306 26.1412 99.1706 27.5256 99.1667 29.1667C99.1628 30.8079 99.7228 32.1942 100.847 33.3259C101.971 34.4576 103.355 35.0156 105 35.0001ZM35 75.8334C36.6528 75.8334 38.0392 75.2734 39.1592 74.1534C40.2792 73.0334 40.8372 71.649 40.8333 70.0001C40.8294 68.3512 40.2694 66.9668 39.1533 65.8467C38.0372 64.7267 36.6528 64.1667 35 64.1667C33.3472 64.1667 31.9628 64.7267 30.8467 65.8467C29.7306 66.9668 29.1706 68.3512 29.1667 70.0001C29.1628 71.649 29.7228 73.0354 30.8467 74.1593C31.9706 75.2831 33.355 75.8412 35 75.8334ZM105 116.667C106.653 116.667 108.039 116.107 109.159 114.987C110.279 113.867 110.837 112.482 110.833 110.833C110.829 109.185 110.269 107.8 109.153 106.68C108.037 105.56 106.653 105 105 105C103.347 105 101.963 105.56 100.847 106.68C99.7306 107.8 99.1706 109.185 99.1667 110.833C99.1628 112.482 99.7228 113.869 100.847 114.993C101.971 116.116 103.355 116.675 105 116.667Z" fill="#699BF7"/>
</svg>
