<svg width="146" height="153" viewBox="0 0 146 153" fill="none" xmlns="http://www.w3.org/2000/svg">
<g clip-path="url(#clip0_21_6)">
<path d="M48.6667 57.375C43.8265 57.375 39.1845 55.3601 35.762 51.7734C32.3394 48.1868 30.4167 43.3223 30.4167 38.25C30.4167 33.1777 32.3394 28.3132 35.762 24.7266C39.1845 21.1399 43.8265 19.125 48.6667 19.125C53.5069 19.125 58.1488 21.1399 61.5714 24.7266C64.9939 28.3132 66.9167 33.1777 66.9167 38.25C66.9167 43.3223 64.9939 48.1868 61.5714 51.7734C58.1488 55.3601 53.5069 57.375 48.6667 57.375ZM103.417 82.875C96.9631 82.875 90.7738 80.1884 86.2104 75.4062C81.647 70.624 79.0833 64.138 79.0833 57.375C79.0833 50.612 81.647 44.126 86.2104 39.3438C90.7738 34.5616 96.9631 31.875 103.417 31.875C109.87 31.875 116.06 34.5616 120.623 39.3438C125.186 44.126 127.75 50.612 127.75 57.375C127.75 64.138 125.186 70.624 120.623 75.4062C116.06 80.1884 109.87 82.875 103.417 82.875ZM48.6667 133.875C40.5997 133.875 32.8631 130.517 27.1588 124.539C21.4546 118.561 18.25 110.454 18.25 102C18.25 93.5462 21.4546 85.4387 27.1588 79.461C32.8631 73.4832 40.5997 70.125 48.6667 70.125C56.7337 70.125 64.4703 73.4832 70.1745 79.461C75.8787 85.4387 79.0833 93.5462 79.0833 102C79.0833 110.454 75.8787 118.561 70.1745 124.539C64.4703 130.517 56.7337 133.875 48.6667 133.875Z" fill="#80AEF6"/>
</g>
<defs>
<clipPath id="clip0_21_6">
<rect width="146" height="153" fill="white" transform="matrix(-1 0 0 -1 146 153)"/>
</clipPath>
</defs>
</svg>
