<svg width="173" height="179" viewBox="0 0 173 179" fill="none" xmlns="http://www.w3.org/2000/svg">
<g clip-path="url(#clip0_21_2)">
<path d="M115.333 111.875C121.069 111.875 126.569 114.232 130.625 118.428C134.68 122.625 136.958 128.316 136.958 134.25C136.958 140.184 134.68 145.875 130.625 150.072C126.569 154.268 121.069 156.625 115.333 156.625C109.598 156.625 104.098 154.268 100.042 150.072C95.9867 145.875 93.7083 140.184 93.7083 134.25C93.7083 128.316 95.9867 122.625 100.042 118.428C104.098 114.232 109.598 111.875 115.333 111.875ZM50.4583 82.0417C58.1054 82.0417 65.4393 85.1848 70.8466 90.7796C76.2539 96.3745 79.2917 103.963 79.2917 111.875C79.2917 119.787 76.2539 127.376 70.8466 132.97C65.4393 138.565 58.1054 141.708 50.4583 141.708C42.8113 141.708 35.4774 138.565 30.0701 132.97C24.6628 127.376 21.625 119.787 21.625 111.875C21.625 103.963 24.6628 96.3745 30.0701 90.7796C35.4774 85.1848 42.8113 82.0417 50.4583 82.0417ZM115.333 22.375C124.892 22.375 134.06 26.3039 140.819 33.2975C147.578 40.291 151.375 49.7763 151.375 59.6667C151.375 69.557 147.578 79.0423 140.819 86.0359C134.06 93.0294 124.892 96.9583 115.333 96.9583C105.774 96.9583 96.6072 93.0294 89.848 86.0359C83.0889 79.0423 79.2917 69.557 79.2917 59.6667C79.2917 49.7763 83.0889 40.291 89.848 33.2975C96.6072 26.3039 105.774 22.375 115.333 22.375Z" fill="#9CF2F4"/>
</g>
<defs>
<clipPath id="clip0_21_2">
<rect width="173" height="179" fill="white"/>
</clipPath>
</defs>
</svg>
