<svg width="131" height="123" viewBox="0 0 131 123" fill="none" xmlns="http://www.w3.org/2000/svg">
<g clip-path="url(#clip0_21_10)">
<path fill-rule="evenodd" clip-rule="evenodd" d="M91.3452 14.5294C89.4869 12.7835 87.0201 11.7258 84.398 11.5507C81.7758 11.3756 79.1744 12.0948 77.0716 13.5761L61.1715 24.7742C54.5664 29.4266 46.8189 32.4407 38.645 33.538L26.7622 35.1267C22.7776 35.6649 19.8574 39.6931 21.7787 43.6445C23.5854 47.3499 29.3385 57.1181 45.5771 72.9595L22.7721 94.3717C22.2508 94.8445 21.835 95.41 21.5489 96.0353C21.2629 96.6606 21.1123 97.3331 21.106 98.0136C21.0997 98.6941 21.2378 99.3689 21.5122 99.9987C21.7867 100.629 22.192 101.201 22.7045 101.682C23.217 102.163 23.8264 102.544 24.4972 102.801C25.168 103.059 25.8868 103.189 26.6115 103.183C27.3363 103.177 28.0525 103.036 28.7185 102.767C29.3844 102.498 29.9867 102.108 30.4902 101.618L53.2951 80.2062C70.1669 95.4531 80.5704 100.855 84.5168 102.551C88.7197 104.355 93.0154 101.613 93.5831 97.8721L95.2806 86.715C96.4493 79.0402 99.6594 71.7659 104.614 65.5641L116.535 50.635C118.113 48.6607 118.879 46.2181 118.693 43.7561C118.506 41.294 117.38 38.9779 115.52 37.2331L91.3452 14.5294ZM83.6216 21.7812L107.802 44.485L95.8811 59.4192C89.8251 66.999 85.9016 75.8897 84.4731 85.2697L83.6926 90.3999C78.3434 87.2019 69.4846 80.9852 57.116 69.372C44.7583 57.7587 38.1319 49.446 34.7259 44.4235L40.1842 43.6906C50.1763 42.3502 59.6472 38.6663 67.7215 32.9794L83.6216 21.7812Z" fill="#699BF7"/>
</g>
<defs>
<clipPath id="clip0_21_10">
<rect width="131" height="123" fill="white"/>
</clipPath>
</defs>
</svg>
