<svg width="260" height="250" viewBox="0 0 260 250" fill="none" xmlns="http://www.w3.org/2000/svg">
<g clip-path="url(#clip0_21_14)">
<path fill-rule="evenodd" clip-rule="evenodd" d="M198.943 191.292C204.891 185.572 209.372 178.6 212.031 170.927C214.69 163.253 215.454 155.09 214.262 147.083L209.668 116.146C209.384 114.231 208.551 112.429 207.262 110.944C205.973 109.458 204.28 108.347 202.371 107.735C200.463 107.123 198.414 107.034 196.456 107.478C194.498 107.922 192.707 108.882 191.284 110.25L160.637 139.719L76.3858 58.6979C74.3545 56.7433 71.5988 55.6447 68.7251 55.6437C65.8513 55.6427 63.0948 56.7395 61.0621 58.6927C59.0293 60.6459 57.8867 63.2956 57.8857 66.0588C57.8847 68.822 59.0253 71.4725 61.0566 73.4271L145.318 154.448L114.682 183.917C113.259 185.285 112.261 187.007 111.799 188.89C111.337 190.773 111.43 192.742 112.066 194.577C112.703 196.412 113.858 198.041 115.403 199.28C116.948 200.519 118.822 201.321 120.813 201.594L152.988 206.01C161.312 207.153 169.797 206.417 177.774 203.861C185.75 201.304 192.998 197.008 198.943 191.292ZM168.068 162.042L145.318 183.917L156.043 185.396C161.038 186.082 166.13 185.64 170.916 184.106C175.702 182.572 180.052 179.987 183.619 176.557C187.187 173.126 189.875 168.945 191.47 164.342C193.066 159.74 193.525 154.844 192.812 150.042L191.284 139.729L168.534 161.604C168.387 161.754 168.235 161.9 168.079 162.042H168.068Z" fill="#8F8FFC"/>
</g>
<defs>
<clipPath id="clip0_21_14">
<rect width="260" height="250" fill="white" transform="matrix(-1 0 0 -1 260 250)"/>
</clipPath>
</defs>
</svg>
