<svg width="200" height="200" viewBox="0 0 200 200" fill="none" xmlns="http://www.w3.org/2000/svg">
<path d="M200 37.5V162.5H0V37.5H62.5V25C62.5 23.2421 62.8255 21.6145 63.4766 20.1171C64.1276 18.6198 65.0065 17.3177 66.1133 16.2109C67.2201 15.1041 68.5547 14.1927 70.1172 13.4765C71.6797 12.7604 73.3073 12.4349 75 12.5H125C126.758 12.5 128.385 12.8255 129.883 13.4765C131.38 14.1276 132.682 15.0065 133.789 16.1132C134.896 17.22 135.807 18.5546 136.523 20.1171C137.24 21.6796 137.565 23.3073 137.5 25V37.5H200ZM75 37.5H125V25H75V37.5ZM12.5 50V68.0664L75 99.2187V87.5H125V99.2187L187.5 68.0664V50H12.5ZM87.5 100V112.5H112.5V100H87.5ZM187.5 150V81.9336L125 113.281V125H75V113.281L12.5 81.9336V150H187.5Z" fill="#FFFEFE"/>
</svg>
