<svg width="80" height="80" viewBox="0 0 80 80" fill="none" xmlns="http://www.w3.org/2000/svg">
<path d="M28 38C28 38.5304 27.7893 39.0391 27.4142 39.4142C27.0391 39.7893 26.5304 40 26 40C25.4696 40 24.9609 39.7893 24.5858 39.4142C24.2107 39.0391 24 38.5304 24 38C24 37.4696 24.2107 36.9609 24.5858 36.5858C24.9609 36.2107 25.4696 36 26 36C26.5304 36 27.0391 36.2107 27.4142 36.5858C27.7893 36.9609 28 37.4696 28 38ZM26 56C26.5304 56 27.0391 55.7893 27.4142 55.4142C27.7893 55.0391 28 54.5304 28 54C28 53.4696 27.7893 52.9609 27.4142 52.5858C27.0391 52.2107 26.5304 52 26 52C25.4696 52 24.9609 52.2107 24.5858 52.5858C24.2107 52.9609 24 53.4696 24 54C24 54.5304 24.2107 55.0391 24.5858 55.4142C24.9609 55.7893 25.4696 56 26 56ZM12 24C12 20.8174 13.2643 17.7652 15.5147 15.5147C17.7652 13.2643 20.8174 12 24 12H56C59.1826 12 62.2348 13.2643 64.4853 15.5147C66.7357 17.7652 68 20.8174 68 24V38.4C64.9047 36.8169 61.4767 35.9942 58 36H38C37.4696 36 36.9609 36.2107 36.5858 36.5858C36.2107 36.9609 36 37.4696 36 38C36 38.5304 36.2107 39.0391 36.5858 39.4142C36.9609 39.7893 37.4696 40 38 40H45.348C42.4583 42.0285 40.1 44.7235 38.4727 47.8568C36.8455 50.9901 35.9973 54.4694 36 58C36 61.6 36.864 65 38.4 68H24C20.8174 68 17.7652 66.7357 15.5147 64.4853C13.2643 62.2348 12 59.1826 12 56V24ZM22 20C21.4696 20 20.9609 20.2107 20.5858 20.5858C20.2107 20.9609 20 21.4696 20 22C20 22.5304 20.2107 23.0391 20.5858 23.4142C20.9609 23.7893 21.4696 24 22 24H58C58.5304 24 59.0391 23.7893 59.4142 23.4142C59.7893 23.0391 60 22.5304 60 22C60 21.4696 59.7893 20.9609 59.4142 20.5858C59.0391 20.2107 58.5304 20 58 20H22ZM26 44C27.5913 44 29.1174 43.3679 30.2426 42.2426C31.3679 41.1174 32 39.5913 32 38C32 36.4087 31.3679 34.8826 30.2426 33.7574C29.1174 32.6321 27.5913 32 26 32C24.4087 32 22.8826 32.6321 21.7574 33.7574C20.6321 34.8826 20 36.4087 20 38C20 39.5913 20.6321 41.1174 21.7574 42.2426C22.8826 43.3679 24.4087 44 26 44ZM32 54C32 52.4087 31.3679 50.8826 30.2426 49.7574C29.1174 48.6321 27.5913 48 26 48C24.4087 48 22.8826 48.6321 21.7574 49.7574C20.6321 50.8826 20 52.4087 20 54C20 55.5913 20.6321 57.1174 21.7574 58.2426C22.8826 59.3679 24.4087 60 26 60C27.5913 60 29.1174 59.3679 30.2426 58.2426C31.3679 57.1174 32 55.5913 32 54ZM76 58C76 62.7739 74.1036 67.3523 70.7279 70.7279C67.3523 74.1036 62.7739 76 58 76C53.2261 76 48.6477 74.1036 45.2721 70.7279C41.8964 67.3523 40 62.7739 40 58C40 53.2261 41.8964 48.6477 45.2721 45.2721C48.6477 41.8964 53.2261 40 58 40C62.7739 40 67.3523 41.8964 70.7279 45.2721C74.1036 48.6477 76 53.2261 76 58ZM60 50C60 49.4696 59.7893 48.9609 59.4142 48.5858C59.0391 48.2107 58.5304 48 58 48C57.4696 48 56.9609 48.2107 56.5858 48.5858C56.2107 48.9609 56 49.4696 56 50V56H50C49.4696 56 48.9609 56.2107 48.5858 56.5858C48.2107 56.9609 48 57.4696 48 58C48 58.5304 48.2107 59.0391 48.5858 59.4142C48.9609 59.7893 49.4696 60 50 60H56V66C56 66.5304 56.2107 67.0391 56.5858 67.4142C56.9609 67.7893 57.4696 68 58 68C58.5304 68 59.0391 67.7893 59.4142 67.4142C59.7893 67.0391 60 66.5304 60 66V60H66C66.5304 60 67.0391 59.7893 67.4142 59.4142C67.7893 59.0391 68 58.5304 68 58C68 57.4696 67.7893 56.9609 67.4142 56.5858C67.0391 56.2107 66.5304 56 66 56H60V50Z" fill="#4A7DDA"/>
</svg>
