<svg width="495" height="500" viewBox="0 0 495 500" fill="none" xmlns="http://www.w3.org/2000/svg">
<path d="M477.094 21.1143C462.659 29.3467 448.54 38.2832 434.919 49.6562L441.987 87.2998C455.773 91.4648 467.034 93.0273 477.094 93.125V21.1143ZM381.5 45.0518C366.74 44.9688 350.131 47.5869 329.51 51.7256L329.298 51.7676L329.085 51.7998C314.821 53.9258 289.687 63.582 264.895 89.7559L307.65 101.246C308.588 99.7881 313.383 92.4531 314.294 90.9385C319.243 93.9883 324.192 97.0361 329.14 100.084C317.092 120.079 303.313 134.807 286.71 153.328C284.659 157.936 287.653 161.335 290.92 163.23C295.962 166.093 304.538 166.248 306.795 165.283C329.908 149.885 346.217 130.197 360.843 110.331L366.125 111.272C377.232 113.256 391.689 112.306 403.507 108.486C414.225 105.021 422.12 99.3486 425.394 93.166L417.738 52.3926C406.106 47.3008 394.521 45.125 381.499 45.0518H381.5ZM220.132 96.4033L191.703 209.671L201.016 209.961H300.618L301.487 209.757L308.058 183.3C299.501 185.155 290.388 183.088 282.41 178.559C277.4 175.714 272.729 171.488 270.221 165.439C262.691 145.969 285.535 129.017 297.962 113.926L220.13 96.4033H220.132ZM67.1815 196.289L44.9686 241.211H449.509L427.296 196.289H322.758L319.362 209.961H339.954V227.539H154.525V209.961H173.697L177.128 196.289H67.1824H67.1815ZM39.5969 258.789V475.586H454.882V258.789H39.5969ZM53.1178 272.461H441.361V461.914H53.1178V272.461ZM70.5018 290.039V405.506L103.823 332.27L174.673 363.287L239.044 318.521L275.273 374.452L323.668 369.965L353.897 331.555L423.977 385.378V290.039H70.5018ZM234.243 343.193L146.714 404.062L172.8 444.336H265.134L284.127 420.205L234.243 343.193ZM112.511 355.23L71.9708 444.336H152.019L122.86 399.318L157.767 375.044L112.511 355.229V355.23ZM356.916 355.945L287.351 444.336H423.081L423.977 443.197V407.453L356.916 355.945ZM308.681 389.006L286.057 391.104L295.526 405.722L308.681 389.006Z" fill="white"/>
</svg>
