<svg width="90" height="90" viewBox="0 0 90 90" fill="none" xmlns="http://www.w3.org/2000/svg">
<path d="M18.75 33.75V78.75H3.75V33.75H18.75ZM33.75 78.75C31.7609 78.75 29.8532 77.9598 28.4467 76.5533C27.0402 75.1468 26.25 73.2391 26.25 71.25V33.75C26.25 31.6875 27.075 29.8125 28.4625 28.4625L53.1375 3.75L57.1125 7.725C58.125 8.7375 58.7625 10.125 58.7625 11.6625L58.65 12.8625L55.0875 30H78.75C80.7391 30 82.6468 30.7902 84.0533 32.1967C85.4598 33.6032 86.25 35.5109 86.25 37.5V45C86.25 45.975 86.0625 46.875 85.725 47.7375L74.4 74.175C73.275 76.875 70.6125 78.75 67.5 78.75H33.75ZM33.75 71.25H67.6125L78.75 45V37.5H45.7875L50.025 17.55L33.75 33.8625V71.25Z" fill="white" fill-opacity="0.6"/>
</svg>
